<?xml version="1.0" encoding="UTF-8" standalone="no"?>
<!-- Created with Inkscape (http://www.inkscape.org/) -->

<svg
   width="210mm"
   height="297mm"
   viewBox="0 0 210 297"
   version="1.1"
   id="svg1"
   xml:space="preserve"
   xmlns="http://www.w3.org/2000/svg"
   xmlns:svg="http://www.w3.org/2000/svg"><defs
     id="defs1" /><g
     id="layer1"><path
       style="fill:#000000;stroke-width:1.9582"
       d="M 44.820982,210.19067 C 31.390539,207.73399 18.660015,199.60031 11.320695,188.78696 8.0903087,184.02752 4.7524167,176.68141 3.3912511,171.33572 L 2.2118654,166.70387 V 107.38056 48.057246 L 3.4261267,43.394278 C 5.8141146,34.223968 10.769011,25.464296 17.213531,19.019776 23.658051,12.575257 32.417734,7.6203564 41.58803,5.2323647 l 4.662968,-1.2142594 h 59.323332 59.32331 l 4.63185,1.1793994 c 8.98041,2.2866608 17.94999,7.3666413 24.40563,13.8222713 6.44452,6.44452 11.39941,15.204192 13.78743,24.374502 l 1.21425,4.662968 v 59.323314 59.32331 l -1.21424,4.59314 c -5.10003,19.29224 -18.5154,32.79968 -37.95255,38.21307 l -4.35426,1.21267 -58.2871,0.1017 c -48.434396,0.0845 -58.966741,-0.0227 -62.307668,-0.63377 z m 64.045848,-48.08495 c 2.60423,-1.08812 5.5776,-3.95976 6.67966,-6.4511 1.11461,-2.51972 1.30199,-7.27632 0.38197,-9.69614 -2.30917,-6.07361 -9.86237,-9.52536 -15.84442,-7.2408 -10.589153,4.04404 -11.231208,18.48331 -1.027919,23.11738 2.533029,1.15042 7.384749,1.28428 9.810709,0.27066 z m -26.061649,-3.70584 c 4.174612,-2.15878 5.887509,-8.26613 3.480507,-12.40975 -1.564622,-2.69343 -4.57992,-4.39489 -7.808211,-4.40596 -8.048425,-0.0274 -12.002915,9.5593 -6.296814,15.2654 2.863557,2.86356 6.935873,3.45779 10.624518,1.55031 z m 49.306069,0.76863 c 3.99641,-1.10991 6.62196,-4.48679 6.62196,-8.51688 0,-3.23758 -1.07293,-5.54741 -3.40194,-7.32384 -1.71068,-1.3048 -2.39883,-1.49309 -5.45709,-1.49309 -2.72648,0 -3.81563,0.23601 -4.93034,1.06824 -4.70979,3.51635 -5.40052,9.37051 -1.59315,13.50204 0.90898,0.98637 2.58525,2.12312 3.7251,2.52616 2.53631,0.89681 2.64293,0.90185 5.03546,0.23737 z m -68.374117,-5.13446 c 2.625126,-2.93777 1.633884,-7.11151 -2.055055,-8.65282 -3.582922,-1.49705 -7.400416,1.14611 -7.400416,5.12395 0,1.66012 0.350792,2.40511 1.827844,3.88221 1.664432,1.66441 2.023429,1.8016 4.015332,1.53449 1.562997,-0.20961 2.594265,-0.74854 3.612295,-1.88783 z m 88.768927,0.45391 c 3.88501,-3.6498 0.23968,-10.68774 -4.94587,-9.54881 -1.73711,0.38153 -3.91538,2.62262 -4.3508,4.47622 -1.18338,5.03797 5.4695,8.66801 9.29667,5.07259 z M 64.345898,139.36518 c 2.390632,-1.36042 4.442788,-4.84848 4.442788,-7.55149 0,-2.3623 -1.782551,-6.0229 -3.541702,-7.27317 -4.881992,-3.46976 -11.782871,-1.56952 -13.837436,3.81027 -1.62568,4.25679 0.203065,9.44599 3.985665,11.30968 2.516211,1.23977 6.483136,1.10889 8.950685,-0.29529 z m 88.340242,0.41571 c 5.54156,-2.86566 6.6201,-10.38793 2.07781,-14.49163 -4.35669,-3.93601 -10.09593,-3.32256 -13.66723,1.46082 -0.83227,1.1147 -1.06824,2.20383 -1.06824,4.93033 0,3.0575 0.18838,3.74661 1.49169,5.45528 0.82043,1.07564 2.21933,2.2724 3.10865,2.65946 2.14876,0.93519 6.23525,0.92796 8.05732,-0.0137 z m -66.941346,-7.80422 c 1.671462,-1.67147 1.80509,-2.02505 1.566189,-4.14457 -0.307163,-2.72501 -1.057624,-3.77087 -3.412088,-4.75504 -6.218172,-2.5992 -10.414774,6.86686 -4.489001,10.12562 2.108259,1.15941 4.391346,0.71755 6.3349,-1.22601 z m 23.348246,0.44006 c 4.45886,-3.30273 5.52146,-9.36254 2.31082,-13.17818 -5.44171,-6.46708 -15.387201,-3.41829 -16.079445,4.92915 -0.33031,3.98331 1.575334,7.17659 5.327895,8.92782 2.14682,1.0019 6.66192,0.6388 8.44073,-0.67879 z m 21.20914,-0.3083 c 2.89217,-2.89216 1.60326,-8.07109 -2.27523,-9.14199 -5.92293,-1.63541 -9.83795,6.61681 -4.67564,9.85556 2.14255,1.34422 5.20776,1.02955 6.95087,-0.71357 z M 65.543417,117.02672 c 1.813354,-0.9497 4.45487,-3.7419 5.449499,-5.76036 2.808688,-5.6998 0.538525,-12.805698 -5.161506,-16.156221 -2.084114,-1.225051 -3.06531,-1.459428 -6.109609,-1.459428 -3.030533,0 -4.028452,0.23612 -6.07021,1.436341 -1.343894,0.789997 -3.034234,2.210888 -3.756282,3.157561 -1.228282,1.610347 -1.312602,2.101737 -1.30941,7.630527 0.0039,4.95503 0.164097,6.15312 0.998605,7.41898 1.326231,2.0118 4.88773,4.34958 7.217853,4.73779 1.035771,0.17252 2.112273,0.37104 2.392218,0.44101 0.9098,0.22742 4.880132,-0.67697 6.348842,-1.4462 z m 88.478413,0.26781 c 2.35524,-1.06996 5.22108,-4.09276 6.27765,-6.6215 1.01363,-2.42594 0.87977,-7.27768 -0.27066,-9.81071 -2.92149,-6.432538 -10.77337,-9.187826 -17.02288,-5.973497 -8.90034,4.577747 -9.03287,17.472837 -0.22669,22.058237 3.07975,1.60365 8.13363,1.75984 11.24259,0.34747 z m -63.441276,-3.91498 c 3.444731,-2.27962 4.823129,-7.82115 2.880044,-11.57865 -2.965657,-5.734943 -11.642997,-6.356104 -15.384768,-1.10127 -1.229966,1.72733 -1.878836,5.68102 -1.306552,7.96117 0.480915,1.9161 3.777626,5.37131 5.680959,5.95409 2.384267,0.73003 5.987809,0.1825 8.130317,-1.23534 z m 35.586226,0.9757 c 2.46116,-1.02833 3.63812,-2.1187 4.84995,-4.49304 3.70178,-7.25302 -4.00822,-15.319107 -11.60777,-12.143824 -2.26865,0.947906 -4.90036,4.057394 -5.31796,6.283394 -0.77394,4.12545 1.18659,8.08922 4.93856,9.98464 2.71039,1.36925 4.51916,1.46272 7.13722,0.36881 z m -18.20916,-4.5914 c 1.98266,-1.98264 2.28629,-4.01057 0.97904,-6.53853 -0.99812,-1.93016 -2.23821,-2.58017 -4.92245,-2.58017 -1.68147,0 -2.47436,0.32804 -3.66082,1.51448 -1.186435,1.18645 -1.514453,1.97935 -1.514453,3.66082 0,2.6382 0.637884,3.90091 2.474033,4.89734 2.46383,1.33708 4.67043,1.02028 6.64465,-0.95394 z m 0.64205,-14.694441 c 0.95155,-0.441927 2.27649,-1.641346 2.94429,-2.665407 2.62505,-4.025436 2.12037,-8.548236 -1.29854,-11.637005 -2.40056,-2.168748 -3.81009,-2.615022 -7.22353,-2.287043 -9.877365,0.949082 -10.538003,15.166175 -0.81526,17.544235 1.86948,0.457259 4.05563,0.130807 6.39304,-0.95478 z M 63.243764,88.546815 c 3.687431,-1.540713 6.074459,-5.916021 5.342013,-9.791694 -1.62797,-8.614325 -12.926207,-10.23979 -16.909091,-2.432674 -3.740753,7.332467 3.913877,15.422072 11.567078,12.224368 z m 22.435215,-1.06158 c 3.636341,-3.636342 1.336081,-9.080534 -3.847945,-9.107186 -5.631494,-0.02898 -7.412224,7.522628 -2.42114,10.267381 2.080472,1.144138 4.392677,0.716232 6.269085,-1.160195 z m 44.557271,0 c 3.5912,-3.591225 1.33833,-9.079751 -3.73822,-9.107186 -2.62113,-0.01371 -4.55862,1.384018 -5.38418,3.885484 -0.50153,1.519682 -0.44549,2.117345 0.35107,3.744082 1.80628,3.688743 5.8748,4.374113 8.77131,1.47762 z m 23.73102,0.02154 c 4.53786,-3.4612 5.02104,-9.574902 1.06906,-13.526886 -4.37932,-4.379322 -11.64022,-3.196157 -14.51621,2.36541 -1.13306,2.191071 -0.93463,6.070308 0.43413,8.487023 2.54412,4.491997 8.91377,5.801094 13.01302,2.674453 z M 109.70703,72.66341 c 7.0305,-3.625767 9.02737,-12.832997 4.13279,-19.055457 -2.22967,-2.834548 -3.37684,-3.212109 -9.77092,-3.215806 -5.528785,-0.0031 -6.020176,0.08111 -7.630543,1.309418 -0.946653,0.722048 -2.366506,2.412368 -3.155211,3.756281 -2.886977,4.91916 -1.486392,12.110342 3.078156,15.804764 3.63362,2.940906 9.222018,3.527485 13.345728,1.4008 z M 81.578113,70.043845 c 1.984813,-0.749913 4.286405,-2.985729 5.149091,-5.001933 3.311045,-7.738421 -5.209149,-15.518415 -12.483066,-11.398594 -6.587469,3.731001 -6.322505,12.887709 0.462057,15.969096 2.398053,1.089152 4.741727,1.236291 6.871918,0.431431 z m 52.540157,-0.65353 c 5.75791,-3.037543 6.29374,-11.666242 0.94426,-15.206337 -2.64439,-1.749987 -5.59323,-2.085152 -8.51798,-0.968194 -7.15901,2.734061 -7.55674,12.861919 -0.63956,16.285874 2.86326,1.417288 5.38031,1.383156 8.21328,-0.111422 z m -71.622011,-3.16046 c 2.369757,-1.225442 3.372435,-4.683215 2.086915,-7.19688 -0.998781,-1.953033 -2.659375,-2.921363 -5.030758,-2.933543 -3.17072,-0.01567 -5.275513,2.0885 -5.25922,5.25922 0.02271,4.451424 4.20841,6.93693 8.203063,4.871203 z m 89.731551,-0.686486 c 1.13929,-1.01803 1.67825,-2.049298 1.88783,-3.612275 0.2671,-1.991922 0.12976,-2.35092 -1.53449,-4.015332 -1.47708,-1.477091 -2.22209,-1.827845 -3.88221,-1.827845 -3.97783,0 -6.621,3.817476 -5.12396,7.400417 1.54134,3.688919 5.71506,4.68018 8.65283,2.055035 z"
       id="path1" /></g></svg>
